<?xml version="1.0" standalone="no"?>
<!DOCTYPE svg PUBLIC "-//W3C//DTD SVG 20010904//EN"
 "http://www.w3.org/TR/2001/REC-SVG-20010904/DTD/svg10.dtd">
<svg version="1.0" xmlns="http://www.w3.org/2000/svg"
 width="400.000000pt" height="400.000000pt" viewBox="0 0 400.000000 400.000000"
 preserveAspectRatio="xMidYMid meet">
<metadata>
</metadata>
<g transform="translate(0.000000,400.000000) scale(0.100000,-0.100000)"
fill="#000000" stroke="none">
<path d="M1975 3553 c-47 -10 -197 -77 -238 -108 -65 -48 -181 -172 -200 -214
-18 -42 -19 -53 -9 -160 21 -219 22 -261 6 -261 -19 0 -18 -17 4 -30 15 -9 14
-10 -5 -5 -21 6 -23 3 -23 -39 0 -46 17 -64 27 -27 3 13 11 17 25 13 11 -2 16
-8 11 -11 -5 -3 -14 -27 -20 -53 -9 -45 -9 -49 13 -63 34 -22 37 -19 17 15
-16 27 -16 32 -3 40 9 6 16 6 18 0 9 -24 20 -7 15 23 -2 17 2 67 11 109 9 42
16 102 16 133 0 49 4 60 29 83 17 16 31 41 34 63 8 55 49 138 72 145 11 4 23
11 26 16 13 20 151 30 229 16 41 -7 125 -13 185 -14 186 -2 218 -12 254 -82
22 -43 41 -187 41 -316 l0 -129 21 27 c13 17 19 36 17 51 -3 13 1 57 10 97 16
84 18 274 3 333 -23 92 -38 118 -111 193 -72 75 -144 121 -213 138 -15 3 -30
10 -33 15 -5 9 -190 11 -229 2z"/>
<path d="M1758 2902 c-41 -16 -54 -37 -37 -58 11 -14 43 -15 64 -3 9 5 60 5
130 0 17 -2 24 -5 16 -8 -11 -5 -11 -7 0 -15 9 -6 -6 -8 -44 -4 -33 2 -70 1
-84 -5 -30 -11 -58 -38 -49 -46 11 -12 99 -15 92 -4 -4 5 -2 12 3 15 5 3 11
-1 15 -9 8 -23 51 -18 68 7 l14 22 22 -22 c25 -25 47 -29 38 -7 -6 17 9 21 19
5 11 -18 25 -10 22 13 -2 12 -18 32 -36 44 -29 20 -30 22 -11 28 25 8 25 17
-1 41 -17 16 -37 19 -113 19 -55 1 -106 -5 -128 -13z"/>
<path d="M2212 2877 c-16 -17 -19 -26 -11 -34 8 -8 6 -14 -10 -22 -21 -12 -29
-41 -11 -41 6 0 10 -7 10 -15 0 -18 26 -20 33 -2 3 8 11 5 26 -10 27 -28 33
-28 56 -3 21 23 35 26 35 6 0 -12 15 -14 53 -7 15 2 6 31 -12 41 -28 14 -36
12 -21 -5 11 -13 8 -13 -23 0 -20 8 -47 15 -59 16 -13 0 -17 3 -10 6 6 2 9 9
6 15 -4 7 23 9 80 7 95 -4 113 6 69 41 -18 14 -41 20 -78 20 -29 0 -65 2 -81
5 -21 3 -35 -1 -52 -18z"/>
<path d="M1706 2249 c-4 -8 0 -32 9 -52 9 -21 13 -48 9 -62 -4 -15 -2 -25 5
-25 6 0 11 9 11 20 0 11 5 20 11 20 6 0 13 -9 16 -20 3 -11 10 -20 17 -20 7 0
6 -4 -2 -9 -11 -7 -10 -9 3 -15 9 -3 13 -11 10 -16 -4 -6 6 -16 23 -22 17 -7
33 -20 36 -31 3 -12 9 -16 18 -11 7 4 10 3 5 -1 -9 -11 22 -45 41 -45 12 0 12
2 1 16 -12 15 -10 16 21 10 31 -6 33 -5 17 7 -17 14 -17 15 2 20 10 2 25 1 32
-4 20 -13 48 -11 127 7 68 15 135 55 119 70 -4 4 -7 2 -7 -5 0 -9 -9 -12 -25
-9 -14 3 -25 2 -25 -2 0 -12 -129 -11 -152 1 -25 13 -92 30 -120 30 -21 0 -24
15 -5 23 6 3 0 4 -15 2 -16 -2 -28 1 -28 5 0 5 8 9 18 10 11 0 12 2 4 6 -7 3
-18 0 -25 -6 -10 -7 -24 -3 -53 14 -24 15 -32 24 -21 25 18 0 25 30 6 30 -5 0
-7 -6 -3 -12 5 -9 3 -9 -9 1 -9 7 -14 17 -11 22 3 5 0 9 -5 9 -6 0 -10 5 -8
11 1 6 -4 14 -10 16 -8 3 -13 -3 -14 -14 0 -16 -1 -16 -9 2 -6 17 -9 17 -14 4z"/>
<path d="M1682 2073 c-13 -27 -14 -207 -1 -240 10 -26 12 -26 19 -8 4 11 6 23
3 28 -7 11 4 8 19 -6 7 -7 34 -30 60 -50 l47 -38 -34 -47 c-19 -26 -48 -65
-65 -87 -28 -39 -29 -40 -8 -43 11 -2 25 2 29 10 6 9 9 9 9 1 0 -17 73 -21 85
-5 8 9 18 11 35 4 34 -12 55 -5 39 14 -16 20 -5 28 19 15 12 -6 33 -11 47 -11
20 0 26 4 23 18 -3 11 -12 16 -26 15 -12 -2 -22 1 -22 6 0 5 -19 18 -41 29
-23 12 -37 16 -30 9 15 -15 14 -37 -2 -37 -35 0 -59 73 -32 98 4 4 6 2 2 -3
-3 -6 -2 -17 3 -25 7 -11 9 -8 7 10 -1 14 -20 51 -44 83 -45 62 -73 128 -93
220 -13 58 -31 73 -48 40z"/>
<path d="M2469 1833 c-21 -5 -30 -38 -19 -68 11 -28 32 -43 38 -27 6 20 22 13
33 -15 6 -15 13 -23 17 -17 4 5 26 9 50 9 34 0 39 -2 27 -11 -13 -10 -10 -11
17 -9 29 2 33 6 36 34 3 28 0 31 -23 31 -18 0 -29 6 -32 20 -3 11 -13 20 -22
21 -10 0 -11 2 -3 6 21 8 13 25 -10 21 -15 -2 -22 -9 -22 -21 2 -21 -12 -23
-20 -2 -3 8 -12 12 -21 9 -10 -4 -15 0 -15 10 0 16 -2 17 -31 9z"/>
<path d="M1446 1801 c-3 -4 -17 -6 -30 -4 -16 3 -39 -4 -62 -18 -43 -26 -34
-34 25 -20 36 8 43 6 51 -9 7 -13 6 -20 -3 -23 -7 -3 -5 -6 6 -6 27 -1 22 -41
-5 -42 -16 -1 -18 -3 -6 -6 15 -4 14 -8 -8 -40 -13 -20 -24 -42 -24 -49 0 -7
-10 -16 -22 -20 -22 -7 -22 -7 -3 -14 14 -5 22 -2 27 11 4 11 12 19 18 19 6 0
8 -4 5 -10 -8 -13 5 -13 25 0 13 9 13 10 0 11 -8 1 -1 5 15 8 17 4 38 4 48 -1
12 -6 19 -4 23 6 4 11 14 14 30 10 20 -5 24 -2 24 15 0 24 -10 27 -28 9 -10
-10 -16 -7 -28 10 -8 12 -22 22 -31 22 -11 0 -14 6 -9 26 6 21 4 25 -8 21 -9
-4 -16 -2 -16 2 0 5 6 12 13 14 10 4 10 6 0 6 -7 1 -13 8 -13 16 0 17 34 37
46 27 5 -4 2 1 -5 10 -7 10 -17 15 -22 12 -5 -3 -9 0 -9 5 0 13 -17 14 -24 2z"/>
<path d="M2216 1738 c-9 -12 -16 -26 -16 -31 0 -5 -10 -18 -22 -28 l-23 -20
24 6 c22 7 23 5 16 -25 -5 -22 -4 -30 3 -26 6 4 17 0 24 -8 11 -12 20 -9 61
21 54 38 80 40 85 5 3 -17 8 -21 23 -17 12 4 19 2 19 -6 0 -10 5 -9 16 3 22
21 12 35 -36 49 -22 7 -57 30 -81 55 -48 49 -71 54 -93 22z"/>
<path d="M1151 1626 c-1 -14 -4 -16 -14 -8 -10 9 -17 6 -30 -8 -23 -27 -22
-29 20 -46 25 -11 32 -18 24 -24 -9 -5 -10 -10 -2 -14 8 -5 6 -16 -5 -38 -12
-24 -13 -33 -3 -42 9 -8 10 -8 6 0 -4 7 0 14 8 18 11 4 15 -2 16 -22 1 -15 1
-30 0 -34 0 -5 4 -8 9 -8 6 0 10 -6 9 -12 -1 -7 -1 -24 0 -38 2 -24 2 -24 16
-6 15 20 15 20 16 0 0 -16 2 -16 10 4 8 21 10 22 25 8 22 -22 31 -20 38 10 5
20 0 31 -26 56 -17 16 -48 37 -67 46 -19 10 -36 24 -39 32 -3 13 -2 13 7 0 6
-8 11 -10 11 -4 0 5 -5 15 -12 22 -8 8 -9 12 -1 12 13 0 6 38 -11 59 -8 11 -8
13 2 7 14 -8 14 0 2 29 -8 19 -9 19 -9 1z"/>
<path d="M1993 1513 c-7 -2 -13 -14 -14 -26 0 -22 0 -22 -9 1 -10 24 -35 30
-43 10 -4 -10 -7 -10 -15 0 -10 15 -82 7 -82 -9 0 -5 -11 -14 -24 -19 -18 -7
-22 -14 -19 -34 4 -21 11 -26 33 -26 23 0 27 -4 23 -20 -4 -15 0 -20 15 -20
40 0 52 11 52 47 0 27 3 33 13 26 6 -6 20 -9 31 -7 11 1 20 -5 23 -17 7 -24
20 -25 27 -1 3 10 4 8 3 -7 -1 -16 4 -25 15 -27 12 -1 17 4 15 18 -3 26 20 35
26 11 4 -15 5 -14 6 3 0 12 8 24 16 28 8 3 15 15 15 26 l0 21 -26 -20 c-25
-20 -27 -20 -40 -4 -7 10 -14 26 -14 36 0 17 -5 19 -27 10z"/>
<path d="M1403 1449 c-5 -16 -8 -18 -15 -7 -7 10 -11 9 -23 -6 -27 -35 -12
-83 16 -53 10 11 17 9 36 -9 28 -26 28 -31 6 -37 -10 -3 -1 -5 20 -6 33 -1 37
2 37 24 0 20 5 25 25 25 22 0 25 4 25 35 0 31 -3 35 -25 35 -14 0 -25 5 -25
10 0 6 -16 10 -36 10 -28 0 -37 -5 -41 -21z"/>
<path d="M2010 1175 c0 -8 -8 -12 -20 -10 -16 3 -20 -2 -20 -21 0 -17 -6 -24
-19 -24 -11 0 -22 -6 -24 -12 -3 -7 -6 -3 -7 10 -2 12 -4 27 -5 32 -1 6 -3 15
-4 20 0 6 -14 9 -31 8 -25 -2 -30 -6 -30 -29 0 -18 -6 -28 -20 -32 -16 -4 -20
-14 -20 -44 0 -25 5 -40 13 -40 6 -1 32 -4 57 -8 l46 -7 2 33 c3 41 12 52 12
15 0 -14 7 -29 15 -32 8 -4 12 -10 9 -15 -3 -5 0 -9 5 -9 6 0 11 7 11 15 0 8
7 15 16 15 27 0 43 32 44 86 0 37 -4 54 -15 58 -9 3 -15 0 -15 -9z"/>
<path d="M3040 1161 c-18 -5 -26 -15 -28 -34 -4 -30 -17 -36 -26 -11 -7 18
-26 9 -26 -12 0 -8 5 -12 10 -9 6 3 10 -3 10 -14 0 -10 -4 -21 -10 -23 -5 -1
-12 -23 -16 -48 -5 -39 -5 -43 7 -28 25 30 104 23 92 -8 -4 -10 0 -12 11 -8
21 8 20 20 -1 34 -14 8 -12 9 11 4 21 -5 27 -4 22 5 -4 6 -2 11 3 11 6 0 11 8
11 18 0 12 2 14 8 4 14 -21 45 -3 38 22 -3 11 -6 31 -6 44 0 15 -6 22 -20 22
-16 0 -20 -7 -21 -32 -1 -21 -3 -25 -6 -13 -10 45 -25 85 -31 84 -4 -1 -18 -4
-32 -8z"/>
<path d="M1417 1127 c-9 -6 -21 -30 -26 -52 -5 -23 -9 -31 -10 -17 -1 20 -29
33 -32 15 -7 -39 -3 -70 10 -80 28 -22 85 -16 115 12 15 14 31 25 37 25 5 0 8
10 8 23 -1 15 -3 17 -6 5 -4 -17 -33 -34 -33 -19 0 5 6 11 13 14 8 3 5 12 -10
29 -13 13 -23 33 -24 44 0 12 -3 14 -6 5 -4 -9 -8 -10 -12 -2 -5 8 -12 8 -24
-2z"/>
<path d="M2855 1070 c15 -6 16 -9 4 -9 -13 -1 -15 -11 -12 -58 2 -31 9 -60 16
-65 9 -6 9 -8 -1 -8 -7 0 -10 -5 -7 -10 4 -6 19 -9 33 -8 22 2 26 -1 24 -17
-7 -50 -13 -65 -30 -65 -10 0 -13 -3 -6 -8 18 -12 34 -72 34 -127 0 -46 -3
-53 -22 -58 -30 -8 -31 -5 -11 32 16 27 16 33 3 41 -19 12 -29 4 -46 -37 -9
-22 -19 -31 -27 -27 -7 4 -9 4 -5 -1 4 -4 1 -14 -7 -21 -7 -8 -11 -23 -8 -34
3 -12 0 -20 -7 -20 -7 0 -3 -12 9 -29 25 -34 26 -41 7 -41 -8 0 -16 -6 -19
-12 -2 -9 -24 -13 -63 -13 -54 0 -59 2 -64 24 -5 24 -29 35 -46 22 -5 -3 -15
-18 -21 -33 -8 -17 -20 -28 -32 -28 -11 0 -25 -9 -31 -20 -7 -13 -19 -19 -40
-17 -24 2 -33 9 -42 34 -10 28 -13 30 -24 15 -14 -19 -15 -18 -31 18 -10 22
-12 19 -12 -30 -1 -63 -12 -80 -53 -80 -23 0 -28 4 -28 25 0 14 -7 28 -15 31
-8 4 -15 15 -15 26 0 11 -6 26 -14 33 -20 21 -31 106 -14 116 10 7 9 9 -4 9
-19 0 -22 24 -18 115 2 38 15 59 31 49 13 -8 20 14 13 41 -5 21 -9 23 -20 14
-8 -7 -17 -9 -21 -5 -3 3 0 6 8 6 10 1 9 3 -3 11 -10 5 -18 16 -18 24 0 7 -6
16 -12 18 -10 4 -10 6 0 6 18 1 15 21 -4 21 -15 0 -16 -9 -11 -67 4 -38 11
-133 17 -213 5 -80 12 -164 14 -188 1 -23 -1 -45 -7 -49 -5 -3 -4 -9 3 -13 17
-10 5 -41 -13 -34 -8 3 -12 17 -10 37 3 26 1 28 -6 12 -9 -18 -10 -18 -10 -2
-1 14 -8 18 -28 15 -21 -2 -29 2 -31 16 -5 23 -32 54 -32 36 0 -7 -8 -9 -20
-5 -18 6 -20 2 -21 -52 -1 -32 -4 -48 -6 -35 -3 17 -11 22 -34 22 -26 0 -29 3
-29 30 0 28 -2 30 -40 30 -38 0 -40 -2 -40 -30 0 -26 -4 -30 -26 -30 -24 0
-25 -2 -22 -47 3 -46 4 -48 32 -45 18 3 26 0 22 -7 -4 -6 -13 -11 -21 -11 -7
0 -15 -7 -19 -15 -6 -17 -48 -20 -75 -5 -12 6 -21 26 -25 60 -6 44 -9 50 -26
45 -11 -4 -23 1 -32 13 -7 10 -28 27 -46 38 -27 16 -92 100 -92 120 0 2 -9 15
-21 27 -11 12 -27 34 -35 49 -11 22 -11 27 0 31 9 3 12 15 9 31 -4 19 -1 26
11 26 23 0 21 64 -3 87 -10 10 -24 28 -30 41 -17 32 -62 27 -72 -8 -4 -14 -8
-20 -8 -15 -1 6 -8 1 -16 -9 -8 -11 -12 -29 -9 -42 4 -16 0 -25 -15 -34 -18
-9 -23 -7 -33 15 -6 14 -15 25 -20 25 -4 0 -8 6 -8 14 0 9 -7 12 -18 9 -23 -6
-24 -53 -2 -63 8 -4 30 -14 48 -23 25 -13 38 -14 53 -7 15 8 21 7 25 -4 3 -9
4 -21 1 -28 -2 -7 1 -20 8 -28 7 -8 25 -46 40 -85 45 -116 97 -229 113 -248 8
-9 13 -19 10 -22 -6 -7 -200 -17 -298 -16 -25 1 -53 0 -62 -2 -20 -2 -161 108
-176 138 -9 17 -11 17 -11 3 -1 -9 31 -48 70 -87 62 -60 68 -69 46 -67 -26 3
-26 3 -11 -25 17 -33 30 -35 82 -13 20 8 53 17 72 19 19 2 51 6 71 10 45 8
185 -13 199 -30 13 -16 50 -8 50 11 0 17 17 18 24 2 3 -9 8 -8 16 4 8 14 21
17 60 14 27 -2 53 -7 58 -10 6 -3 28 1 51 9 23 8 41 10 41 5 0 -6 9 -6 24 0
14 5 45 10 70 11 25 2 46 5 46 9 0 3 8 6 18 7 64 4 149 27 165 45 9 11 17 15
17 9 0 -14 44 -6 145 25 50 16 101 21 107 11 5 -8 8 -7 8 4 0 32 171 71 266
62 35 -4 60 0 82 11 60 31 75 24 112 -56 19 -40 36 -95 40 -121 7 -48 6 -48
-31 -68 -60 -30 -244 -87 -307 -95 -31 -3 -77 -17 -102 -30 -25 -12 -70 -34
-99 -48 l-55 -26 137 0 c85 0 137 4 137 10 0 6 -5 10 -12 10 -9 0 -9 3 -1 11
24 24 160 92 183 92 8 0 22 5 30 12 20 17 98 45 135 48 28 3 89 26 125 46 8 5
15 19 16 32 0 14 4 31 9 38 6 11 4 13 -9 8 -10 -4 -21 -7 -25 -7 -4 0 -17 -9
-29 -20 -18 -17 -25 -18 -35 -8 -8 7 -12 21 -9 32 3 11 1 17 -5 13 -6 -4 -16
12 -23 36 -8 23 -17 47 -22 54 -14 18 -20 274 -7 290 8 9 8 13 0 13 -6 0 -11
7 -11 15 0 8 -4 15 -9 15 -6 0 -8 38 -6 90 2 55 -1 90 -7 90 -5 0 -17 7 -26
16 -15 15 -15 17 1 29 11 8 17 26 17 54 0 36 -3 41 -22 41 -19 0 -20 2 -8 10
11 7 6 10 -20 9 -29 0 -31 -2 -15 -9z"/>
<path d="M930 1046 c0 -14 -4 -28 -10 -31 -5 -3 -10 -2 -10 3 0 6 -10 5 -25
-1 -24 -12 -35 -37 -16 -37 5 0 11 -12 13 -27 l4 -28 11 25 c10 24 10 24 23 4
8 -13 20 -19 30 -17 11 3 19 -3 23 -16 4 -16 13 -21 36 -21 17 0 31 5 31 10 0
6 -9 10 -19 10 -14 0 -18 5 -14 20 4 15 11 19 25 14 16 -5 19 -2 16 18 -2 15
-11 24 -25 26 -17 2 -23 10 -23 27 0 27 -3 29 -42 39 -25 6 -28 4 -28 -18z"/>
<path d="M1880 840 l25 -8 -26 -1 c-14 -1 -29 -4 -33 -8 -4 -4 -15 -8 -24 -8
-24 0 -31 -74 -8 -76 9 -1 22 -2 29 -3 6 0 13 -13 15 -28 3 -24 8 -28 36 -28
l34 0 1 75 c1 48 -2 75 -9 75 -6 0 -8 5 -5 10 4 6 -7 10 -27 9 -31 -1 -32 -1
-8 -9z"/>
<path d="M856 678 c-3 -24 -8 -167 -11 -319 -7 -306 -1 -359 41 -359 21 0 22
3 19 73 -1 39 -8 95 -14 122 -6 28 -15 70 -21 95 -13 64 -12 227 3 281 17 64
48 99 86 99 45 0 38 13 -16 33 -73 26 -81 24 -87 -25z"/>
</g>
</svg>
